<?xml version="1.0" standalone="no"?><!DOCTYPE svg PUBLIC "-//W3C//DTD SVG 1.1//EN" "http://www.w3.org/Graphics/SVG/1.1/DTD/svg11.dtd"><svg t="1700230521969" class="icon" viewBox="0 0 1024 1024" version="1.1" xmlns="http://www.w3.org/2000/svg" p-id="26985" xmlns:xlink="http://www.w3.org/1999/xlink" width="200" height="200"><path d="M620 461.3c1.8-1.2 3.3-2.7 4.4-4.4 4.9-7.4 2.9-17.3-4.4-22.2l-147.2-98.1c-2.6-1.8-5.7-2.7-8.9-2.7-8.8 0-16 7.2-16 16v196.2c0 3.2 0.9 6.2 2.7 8.9 4.9 7.4 14.8 9.3 22.2 4.4L620 461.3zM192 192h640c35.3 0 64 28.7 64 64v384c0 35.3-28.7 64-64 64H192c-35.3 0-64-28.7-64-64V256c0-35.3 28.7-64 64-64zM280 768h464c13.3 0 24 10.7 24 24s-10.7 24-24 24H280c-13.3 0-24-10.7-24-24s10.7-24 24-24z" fill="#d4237a" p-id="26986"></path></svg>