<?xml version="1.0" standalone="no"?><!DOCTYPE svg PUBLIC "-//W3C//DTD SVG 1.1//EN" "http://www.w3.org/Graphics/SVG/1.1/DTD/svg11.dtd"><svg class="icon" width="200px" height="200.00px" viewBox="0 0 1024 1024" version="1.1" xmlns="http://www.w3.org/2000/svg"><path d="M588.8 318.72l-12.032-7.424L727.04 104.704a31.40608 31.40608 0 0 0-7.424-43.776 31.39584 31.39584 0 0 0-43.776 7.424L522.24 278.528 281.6 129.28a31.10912 31.10912 0 0 0-33.024 52.736L486.4 328.96l-22.784 31.488a31.39584 31.39584 0 0 0 51.2 36.352l25.6-35.072 16.128 9.728a30.976 30.976 0 1 0 32.256-52.736zM710.4 809.728a53.21728 53.21728 0 0 0 15.59552 37.65248 53.21728 53.21728 0 0 0 75.30496 0 53.21728 53.21728 0 0 0 0-75.30496 53.21728 53.21728 0 0 0-75.30496 0 53.21728 53.21728 0 0 0-15.59552 37.65248zM261.12 756.48a53.24288 53.24288 0 0 0-37.30432 90.98752 53.26336 53.26336 0 0 0 57.99424 11.42784 53.22752 53.22752 0 0 0 28.73856-69.60128A53.248 53.248 0 0 0 261.12 756.48z" fill="#FB813A" /><path d="M234.24 273.408H790.528c61.952 0 92.928 30.976 92.928 92.928V727.04c0 61.952-30.976 92.928-92.928 92.928H234.24c-61.952 0-92.928-30.976-92.928-92.928V366.336c0-61.952 30.976-92.928 92.928-92.928z" fill="#FDDE80" /><path d="M392.192 534.272a128.23552 128.23552 0 0 0 79.17568 118.49216A128.24576 128.24576 0 0 0 648.704 534.272a128.23552 128.23552 0 0 0-79.17568-118.49216 128.23552 128.23552 0 0 0-139.77088 27.8016A128.256 128.256 0 0 0 392.192 534.272z" fill="#FFFFFF" /><path d="M476.928 505.6c0-26.88 19.2-37.632 42.24-25.6l49.664 28.672a25.62048 25.62048 0 0 1 17.60768 24.32 25.61536 25.61536 0 0 1-17.60768 24.32l-49.664 28.672c-23.04 13.568-42.24 2.56-42.24-24.32V505.6z" fill="#FB813A" /></svg>