<?xml version="1.0" standalone="no"?><!DOCTYPE svg PUBLIC "-//W3C//DTD SVG 1.1//EN" "http://www.w3.org/Graphics/SVG/1.1/DTD/svg11.dtd"><svg class="icon" width="200px" height="200.00px" viewBox="0 0 1024 1024" version="1.1" xmlns="http://www.w3.org/2000/svg"><path d="M401.747968 373.055488c-79.38048-2.838528-160.497664 13.340672-220.176384 42.237952C126.877696 441.798656 49.8688 514.248704 45.056 565.248h823.296c-3.600384 0-13.451264-10.428416-16.502784-12.742656-5.615616-4.231168-10.907648-8.638464-16.523264-12.767232-13.328384-9.859072-27.611136-18.694144-41.590784-27.62752a1167.601664 1167.601664 0 0 0-86.28224-50.425856c-58.748928-30.912512-120.77056-56.19712-185.516032-71.901184a604.536832 604.536832 0 0 0-120.188928-16.728064z" fill="#47CFE5" /><path d="M778.940416 487.424c-14.155776 35.876864-152.260608 40.824832-202.031104 40.824832H103.104512c-16.965632 0-33.153024 5.771264-44.27776 15.839232-11.026432 9.969664-15.712256 23.06048-13.033472 35.930112 0 0.12288 0 0.299008 0.1024 0.372736 10.350592 48.492544 39.79264 92.540928 85.05344 127.34464 1.80224 1.400832 3.633152 2.797568 5.48864 4.149248 118.882304 87.117824 325.799936 90.116096 471.621632 48.717824 46.16192-13.090816 90.066944-31.281152 128.282624-55.115776 43.425792-27.082752 87.7568-63.635456 113.946624-101.859328 3.858432-5.623808 45.907968-67.93216 46.73536-67.608576L778.940416 487.424z" fill="#47CFE5" /><path d="M976.551936 504.250368l-33.533952-18.796544a85.516288 85.516288 0 0 0-39.043072-10.739712c-13.713408-0.4096-27.32032 2.469888-39.641088 8.388608a81.85856 81.85856 0 0 0-12.771328-37.74464 83.88608 83.88608 0 0 0-29.220864-27.578368l-33.583104-18.792448a13.017088 13.017088 0 0 0-9.785344-1.2288c-1.630208 0.434176-3.162112 1.18784-4.497408 2.203648-1.335296 1.015808-2.4576 2.285568-3.293184 3.72736l-8.78592 15.081472a63.87712 63.87712 0 0 0-6.397952 49.340416c4.620288 16.62976 15.785984 30.777344 31.043584 39.333888l17.723392 9.95328a0.065536 0.065536 0 0 1-0.012288 0.036864c-0.008192 0.008192-0.024576 0.012288-0.036864 0.012288l57.77408 32.391168 0.053248-0.049152 19.591168 10.993664a67.46112 67.46112 0 0 0 50.307072 6.275072c16.95744-4.52608 31.383552-15.466496 40.12032-30.420992l8.78592-15.101952a12.496896 12.496896 0 0 0 1.236992-9.613312 12.746752 12.746752 0 0 0-6.033408-7.671808z" fill="#2BBAE4" /><path d="M684.032 735.019008C343.42912 744.382464 247.9104 569.344 247.9104 569.344h-202.79296a35.631104 35.631104 0 0 0 0.708608 9.465856c10.440704 48.86528 40.1408 93.24544 85.786624 128.315392 1.82272 1.4336 3.66592 2.822144 5.537792 4.17792 119.885824 87.785472 328.593408 90.832896 475.676672 49.094656A573.988864 573.988864 0 0 0 684.032 735.019008" fill="#E5E6E6" /><path d="M684.032 741.220352c-75.030528 1.908736-138.354688-4.677632-191.803392-15.110144-56.426496-11.005952-30.130176 62.922752-3.702784 60.25216 43.163648-4.32128 84.824064-11.24352 122.519552-21.127168A611.622912 611.622912 0 0 0 684.032 741.220352z" fill="#E4E5E4" /><path d="M401.67424 695.033856c24.502272 78.659584 79.151104 132.509696 132.595712 128 4.243456-0.380928 7.077888-4.58752 6.262784-8.720384l-27.746304-141.479936a6.438912 6.438912 0 0 0-2.740224-4.087808 6.537216 6.537216 0 0 0-4.849664-0.98304L406.7328 686.7968a6.569984 6.569984 0 0 0-4.366336 3.006464 6.47168 6.47168 0 0 0-0.692224 5.230592" fill="#47CFE5" /><path d="M438.272 628.723712a30.707712 30.707712 0 0 1-8.99072 21.725184 30.72 30.72 0 1 1 8.99072-21.725184" fill="#0099BC" /><path d="M229.376 287.776768a70.41024 70.41024 0 0 1 21.123072-50.003968A72.351744 72.351744 0 0 1 301.248512 217.088a71.8848 71.8848 0 0 1 53.116928 23.298048 71.92576 71.92576 0 0 1 36.53632-21.315584 72.638464 72.638464 0 0 1 42.356736 2.797568 71.569408 71.569408 0 0 1 33.333248 25.92768 70.086656 70.086656 0 0 1 12.640256 39.97696 18.04288 18.04288 0 0 1-1.404928 7.00416 18.251776 18.251776 0 0 1-4.01408 5.9392 18.579456 18.579456 0 0 1-13.115392 5.34528 18.751488 18.751488 0 0 1-7.10656-1.376256 18.538496 18.538496 0 0 1-6.025216-3.960832 18.071552 18.071552 0 0 1-5.4272-12.94336 34.01728 34.01728 0 0 0-9.908224-23.482368 34.934784 34.934784 0 0 0-23.584768-10.256384 34.988032 34.988032 0 0 0-24.252416 8.613888 34.07872 34.07872 0 0 0-11.542528 22.736896h-0.200704l0.126976 85.426176a18.173952 18.173952 0 0 1-5.431296 12.94336A18.67776 18.67776 0 0 1 354.230272 389.12a18.67776 18.67776 0 0 1-13.115392-5.357568 18.173952 18.173952 0 0 1-5.431296-12.94336V287.678464c0-18.784256-15.568896-34.11968-34.607104-34.11968a34.947072 34.947072 0 0 0-24.51456 10.031104 34.009088 34.009088 0 0 0-10.166272 24.18688 18.137088 18.137088 0 0 1-5.419008 12.910592 18.6368 18.6368 0 0 1-13.090816 5.349376 18.6368 18.6368 0 0 1-13.08672-5.349376A18.137088 18.137088 0 0 1 229.376 287.776768" fill="#47CFE5" /><path d="M354.24256 397.312a23.912448 23.912448 0 0 1-17.252352-7.512064 26.230784 26.230784 0 0 1-7.155712-18.071552V284.962816c0.016384-3.846144-0.69632-7.65952-2.08896-11.214848a29.323264 29.323264 0 0 0-6.049792-9.515008 27.828224 27.828224 0 0 0-9.07264-6.356992 26.78784 26.78784 0 0 0-10.706944-2.215936 26.783744 26.783744 0 0 0-10.702848 2.2528 27.836416 27.836416 0 0 0-9.05216 6.38976 29.32736 29.32736 0 0 0-6.012928 9.54368 30.384128 30.384128 0 0 0-2.052096 11.22304 26.128384 26.128384 0 0 1-7.524352 17.338368 23.8592 23.8592 0 0 1-16.883712 7.090176 23.8592 23.8592 0 0 1-16.883712-7.08608A26.13248 26.13248 0 0 1 225.28 285.065216C225.28 240.816128 259.751936 204.8 302.112768 204.8c19.390464 0.024576 38.05184 7.74144 52.228096 21.594112 14.225408-13.836288 32.91136-21.54496 52.3264-21.594112C448.929792 204.8 483.328 240.816128 483.328 285.069312a26.165248 26.165248 0 0 1-7.421952 17.55136 23.875584 23.875584 0 0 1-16.9984 7.20896 23.8592 23.8592 0 0 1-16.994304-7.20896 26.148864 26.148864 0 0 1-7.426048-17.55136 29.949952 29.949952 0 0 0-8.044544-19.922944c-5.009408-5.3248-11.780096-8.433664-18.911232-8.695808a27.19744 27.19744 0 0 0-19.451904 7.29088c-5.357568 4.93568-8.704 11.83744-9.355264 19.279872l-0.172032 2.74432 0.098304 85.962752a26.23488 26.23488 0 0 1-7.155712 18.075648A23.916544 23.916544 0 0 1 354.24256 397.312zM301.989888 242.888704c22.15936 0 40.18176 18.874368 40.18176 42.074112v86.79424c-0.1024 1.72032 0.131072 3.452928 0.688128 5.07904 0.557056 1.622016 1.425408 3.11296 2.555904 4.374528 1.1264 1.257472 2.490368 2.260992 4.005888 2.94912a11.603968 11.603968 0 0 0 9.592832 0 12.0832 12.0832 0 0 0 4.005888-2.94912c1.1264-1.261568 1.998848-2.752512 2.555904-4.374528 0.557056-1.626112 0.790528-3.35872 0.684032-5.07904l-0.098304-95.625216h1.015808c1.96608-9.40032 6.94272-17.8176 14.102528-23.8592a39.268352 39.268352 0 0 1 25.264128-9.35936c22.208512 0 40.28416 18.927616 40.28416 42.180608 0.14336 3.248128 1.47456 6.311936 3.719168 8.56064a11.784192 11.784192 0 0 0 8.33536 3.493888c3.104768 0 6.090752-1.253376 8.33536-3.497984a12.894208 12.894208 0 0 0 3.719168-8.56064c0-37.126144-28.831744-67.31776-64.294912-67.31776-18.075648 0-35.487744 8.077312-47.751168 22.216704l-4.575232 5.230592-4.575232-5.308416a64.643072 64.643072 0 0 0-21.573632-16.36352 61.984768 61.984768 0 0 0-26.054656-5.828608c-17.068032-0.004096-33.44384 7.077888-45.531136 19.70176-12.087296 12.619776-18.898944 29.749248-18.935808 47.620096 0 3.346432 1.26976 6.5536 3.52256 8.916992 2.260992 2.363392 5.3248 3.694592 8.51968 3.694592s6.254592-1.3312 8.515584-3.694592c2.256896-2.363392 3.526656-5.57056 3.526656-8.916992 0.012288-11.173888 4.25984-21.889024 11.804672-29.790208 7.548928-7.90528 17.780736-12.34944 28.454912-12.361728z" fill="#47CFE5" /><path d="M381.886464 643.072H308.723712a48.402432 48.402432 0 0 1-21.123072-5.046272 53.248 53.248 0 0 1-17.518592-14.012416l-26.161152-31.404032a31.838208 31.838208 0 0 0-10.4448-8.339456 28.975104 28.975104 0 0 0-12.582912-3.018752H52.277248c-1.912832 0-3.751936-0.83968-5.107712-2.342912a8.454144 8.454144 0 0 1-2.113536-5.656576c0-2.121728 0.761856-4.15744 2.113536-5.660672 1.355776-1.499136 3.19488-2.342912 5.107712-2.342912h168.640512c12.632064 0 24.891392 6.02112 33.62816 16.52736l26.157056 31.432704c7.344128 8.798208 17.57184 13.860864 28.045312 13.860864H381.91104c1.916928 0.004096 3.751936 0.847872 5.103616 2.351104 1.35168 1.503232 2.10944 3.54304 2.105344 5.664768 0 2.121728-0.765952 4.153344-2.125824 5.65248a6.88128 6.88128 0 0 1-5.107712 2.33472z" fill="#0099BC" /></svg>