<?xml version="1.0" standalone="no"?><!DOCTYPE svg PUBLIC "-//W3C//DTD SVG 1.1//EN" "http://www.w3.org/Graphics/SVG/1.1/DTD/svg11.dtd"><svg class="icon" width="200px" height="200.00px" viewBox="0 0 1024 1024" version="1.1" xmlns="http://www.w3.org/2000/svg"><path d="M116.781 503.883a75.294 75.294 0 1 0 150.588 0 75.294 75.294 0 1 0-150.588 0zM267.369 411.211a75.294 75.294 0 1 0 150.589 0 75.294 75.294 0 1 0-150.589 0z" fill="#FA942D" /><path d="M209.453 480.723a75.294 75.294 0 1 0 150.588 0 75.294 75.294 0 1 0-150.588 0z" fill="#FE5D79" /><path d="M638.042 532.841a127.428 127.428 0 1 0 254.856 0 127.428 127.428 0 1 0-254.856 0z" fill="#FA942D" /><path d="M499.05 457.547a133.21 133.21 0 1 0 266.42 0 133.21 133.21 0 1 0-266.42 0z" fill="#FA942D" /><path d="M522.21 556.017a150.588 150.588 0 1 0 301.176 0 150.588 150.588 0 1 0-301.176 0z" fill="#FE5D79" /><path d="M932.292 474.925a28.762 28.762 0 0 1 28.747 28.763l-0.045 1.355-0.09 1.355c-14.306 150.92-130.606 272.866-280.742 299.189l20.179 80.745a23.16 23.16 0 0 1-22.468 28.778H343.37a23.16 23.16 0 0 1-22.467-28.778l20.178-80.745C192.813 779.595 77.552 660.329 60.928 512.015l-0.557-5.376a28.958 28.958 0 0 1 28.822-31.714h843.084z" fill="#FDDC7A" /><path d="M442.549 196.924h136.147c21.263 0 39.8 14.457 44.95 35.087l60.732 242.914H336.866l60.732-242.899a46.336 46.336 0 0 1 44.95-35.102z" fill="#F6C338" /><path d="M688.038 192.904c9.442-30.178 28.386-29.41 34.68-47.586 7.063-20.45 9.367-45.719 6.927-75.822 16.851 17.936 25.977 37.015 30.946 62.284 4.894 24.937-9.126 44.182-29.063 74.48-19.923 30.314-8.81 67.615 0 94.916-16.851-17.92-59.904-55.777-43.475-108.272z m-404.676-38.656c11.324-37.708 34.063-36.774 41.607-59.483C333.463 69.21 336.233 37.632 333.282 0c20.239 22.408 31.202 46.26 37.165 77.854 5.873 31.172-10.948 55.22-34.876 93.109-23.944 37.873-10.602 84.48 0 118.633-20.24-22.422-71.936-69.722-52.21-135.348z" fill="#C6D2E1" /><path d="M510.63 706.605a92.672 92.672 0 0 1 92.672 92.672V915.11H417.958V799.277a92.672 92.672 0 0 1 92.672-92.672z" fill="#F5BC20" /></svg>