<?xml version="1.0" standalone="no"?><!DOCTYPE svg PUBLIC "-//W3C//DTD SVG 1.1//EN" "http://www.w3.org/Graphics/SVG/1.1/DTD/svg11.dtd"><svg class="icon" width="200px" height="200.00px" viewBox="0 0 1024 1024" version="1.1" xmlns="http://www.w3.org/2000/svg"><path d="M789.942857 321.828571a87.771429 87.771429 0 0 1 87.771429 87.771429v380.342857a87.771429 87.771429 0 0 1-87.771429 87.771429H380.342857a87.771429 87.771429 0 0 1-87.771428-87.771429V409.6a87.771429 87.771429 0 0 1 87.771428-87.771429h365.714286v446.171429a21.942857 21.942857 0 0 0 19.836343 21.840457L768 789.942857a21.942857 21.942857 0 0 0 21.942857-21.942857V321.828571z" fill="#46CFE3" /><path d="M146.285714 146.285714m87.771429 0l424.228571 0q87.771429 0 87.771429 87.771429l0 555.885714q0 87.771429-87.771429 87.771429l-424.228571 0q-87.771429 0-87.771429-87.771429l0-555.885714q0-87.771429 87.771429-87.771429Z" fill="#46CFE3" /><path d="M234.057143 234.057143m29.257143 0l365.714285 0q29.257143 0 29.257143 29.257143l0 263.314285q0 29.257143-29.257143 29.257143l-365.714285 0q-29.257143 0-29.257143-29.257143l0-263.314285q0-29.257143 29.257143-29.257143Z" fill="#3EA9D3" /><path d="M404.772571 307.829029l129.462858 80.925257a15.945143 15.945143 0 0 1 0 27.062857l-129.462858 80.925257a15.945143 15.945143 0 0 1-24.429714-13.531429V321.360457a15.945143 15.945143 0 0 1 24.429714-13.531428z" fill="#FFD568" /><path d="M234.057143 614.4m29.257143 0l365.714285 0q29.257143 0 29.257143 29.257143l0 0q0 29.257143-29.257143 29.257143l-365.714285 0q-29.257143 0-29.257143-29.257143l0 0q0-29.257143 29.257143-29.257143Z" fill="#3EA9D3" /><path d="M234.057143 731.428571m29.257143 0l204.8 0q29.257143 0 29.257143 29.257143l0 0q0 29.257143-29.257143 29.257143l-204.8 0q-29.257143 0-29.257143-29.257143l0 0q0-29.257143 29.257143-29.257143Z" fill="#3EA9D3" /></svg>