<?xml version="1.0" standalone="no"?><!DOCTYPE svg PUBLIC "-//W3C//DTD SVG 1.1//EN" "http://www.w3.org/Graphics/SVG/1.1/DTD/svg11.dtd"><svg class="icon" width="200px" height="200.00px" viewBox="0 0 1024 1024" version="1.1" xmlns="http://www.w3.org/2000/svg"><path d="M241.664 434.23744V479.232h548.864v-44.99456c-1.96608-146.137088-116.453376-264.650752-261.312512-270.82752V145.408c0-19.079168-27.40224-19.132416-27.40224-0.053248v18.055168c-143.72864 7.380992-258.195456 125.50144-260.149248 270.82752z" fill="#48CFE5" /><path d="M254.885888 479.232H780.288c59.334656 0 107.429888 47.67744 107.429888 106.496s-48.095232 106.496-107.429888 106.496H254.885888C195.551232 692.224 147.456 644.54656 147.456 585.728s48.095232-106.496 107.429888-106.496z" fill="#2CBAE5" /><path d="M352.256 897.024l53.248-204.8h212.992l53.248 204.8H352.256zM241.664 593.92c0 10.862592 4.530176 21.282816 12.5952 28.962816 8.06912 7.68 19.00544 11.997184 30.4128 11.997184s22.347776-4.317184 30.4128-11.997184C323.149824 615.202816 327.68 604.782592 327.68 593.92s-4.530176-21.282816-12.5952-28.962816c-8.06912-7.68-19.00544-11.997184-30.4128-11.997184s-22.347776 4.317184-30.4128 11.997184C246.194176 572.637184 241.664 583.057408 241.664 593.92zM696.32 593.92c0 10.862592 4.530176 21.282816 12.5952 28.962816 8.06912 7.68 19.00544 11.997184 30.4128 11.997184s22.34368-4.317184 30.4128-11.997184c8.065024-7.68 12.5952-18.100224 12.5952-28.962816s-4.530176-21.282816-12.5952-28.962816c-8.06912-7.68-19.00544-11.997184-30.4128-11.997184s-22.34368 4.317184-30.4128 11.997184C700.850176 572.637184 696.32 583.057408 696.32 593.92z" fill="#FFD778" /></svg>