<svg t="1691396771976" class="icon" viewBox="0 0 1024 1024" version="1.1" xmlns="http://www.w3.org/2000/svg"
  p-id="10823" width="200" height="200">
  <path
    d="M202.890117 493.613406c-2.702177 0-4.831867 0.395096-6.506995 1.062325 2.270796-0.688395 4.695801-1.062325 7.199421-1.062325L202.890117 493.613406 202.890117 493.613406 202.890117 493.613406z"
    fill="current-color" p-id="10824"></path>
  <path
    d="M950.029384 791.36385c0.0766-1.385861 0.253991-2.742493 0.546281-4.04873C950.252129 787.912805 950.085826 789.198884 950.029384 791.36385L950.029384 791.36385 950.029384 791.36385z"
    fill="current-color" p-id="10825"></path>
  <path
    d="M999.870988 241.311135c0.015118-0.050395 0.015118-0.120948 0.015118-0.176382l0-0.648079C999.887114 240.763846 999.887114 241.048073 999.870988 241.311135L999.870988 241.311135 999.870988 241.311135z"
    fill="current-color" p-id="10826"></path>
  <path
    d="M950.000155 241.230503c0 0.055434 0 0.111877 0.016126 0.172351-0.016126-0.304385-0.016126-0.612802-0.016126-0.91618L950.000155 241.230503 950.000155 241.230503 950.000155 241.230503z"
    fill="current-color" p-id="10827"></path>
  <path d="M493.982382 565.806174" fill="current-color" p-id="10828"></path>
  <path
    d="M324.29153 879.168972c-39.717261 0-71.888383 32.171122-71.888383 71.895438 0 39.711213 32.171122 71.890399 71.888383 71.890399 39.724316 0 71.890399-32.179186 71.890399-71.890399C396.181929 911.340094 364.015846 879.168972 324.29153 879.168972L324.29153 879.168972 324.29153 879.168972 324.29153 879.168972zM827.54448 879.168972c-39.724316 0-71.903502 32.171122-71.903502 71.895438 0 39.711213 32.179186 71.890399 71.903502 71.890399 39.711213 0 71.888383-32.179186 71.888383-71.890399C899.432863 911.340094 867.254685 879.168972 827.54448 879.168972L827.54448 879.168972 827.54448 879.168972 827.54448 879.168972zM898.856345 843.2273 314.983584 843.2273c-51.801968 0-97.345891-40.983182-103.672472-93.288091l-60.961752-429.192545L115.659499 120.168752c-2.154888-17.502163-18.110934-31.816342-33.7122-31.816342L36.152408 88.35241c-19.845528 0-35.948727-16.103199-35.948727-35.941672 0-19.845528 16.103199-35.948727 35.948727-35.948727l45.795899 0c52.446015 0 98.490864 40.978142 104.851714 93.282043l34.616285 199.819972 61.215743 431.027929c2.015798 16.685765 17.108075 30.739906 32.352544 30.739906l583.872761 0c19.872741 0 35.948727 16.068931 35.948727 35.946711C934.805072 827.158369 918.729086 843.2273 898.856345 843.2273L898.856345 843.2273 898.856345 843.2273zM359.917729 699.434407c-18.654191 0-34.434863-14.373645-35.806613-33.316095-1.474556-19.80622 13.411102-37.027179 33.17499-38.464443l487.651684-35.948727c17.896251-0.10079 32.995584-14.160978 34.970057-30.15734l56.617708-323.946743c1.433232-12.078659-1.902913-25.302292-9.127532-33.497517-4.640366-5.248129-10.464006-7.914022-17.260267-7.914022L287.77334 196.18952c-19.845528 0-35.946711-16.103199-35.946711-35.948727 0-19.838472 16.102191-35.941672 35.946711-35.941672l622.365424 0c27.466251 0 52.69295 11.396312 71.065938 32.137862 20.996548 23.689654 30.625006 57.079326 26.420052 91.695611l-56.650969 323.986051c-6.111898 50.390909-51.615506 91.374091-103.418482 91.374091l-484.979745 35.833827C361.679536 699.402155 360.774443 699.434407 359.917729 699.434407L359.917729 699.434407 359.917729 699.434407zM359.917729 699.434407"
    fill="current-color" p-id="10829"></path>
</svg>