<svg t="1697625567402" class="icon" viewBox="0 0 1024 1024" version="1.1" xmlns="http://www.w3.org/2000/svg" p-id="4720"
  width="200" height="200">
  <path
    d="M747.985455 322.932364c-43.240727-6.656-83.083636-36.631273-99.700364-76.567273l-76.474182-159.837091c-23.272727-53.294545-96.349091-53.294545-122.973091 0l-73.076363 159.837091c-19.968 39.936-56.506182 69.911273-99.74691 76.567273l-172.823272 26.670545c-53.154909 6.656-76.427636 73.262545-36.538182 113.198546l129.629091 133.21309c29.882182 29.975273 43.194182 73.262545 36.538182 116.549819l-29.928728 186.507636c-9.960727 56.599273 49.850182 96.581818 99.700364 69.957818L448.837818 889.018182c39.889455-23.272727 89.739636-23.272727 129.629091 0l146.245818 79.965091c49.850182 26.624 106.356364-13.358545 99.700364-69.957818l-33.233455-186.507637c-6.702545-43.287273 6.656-86.574545 36.538182-116.549818l129.629091-133.213091c39.889455-39.936 16.616727-106.589091-36.538182-113.198545l-172.823272-26.670546z"
    p-id="4721"></path>
</svg>