<svg t="1685077688783" class="icon" viewBox="0 0 1024 1024" version="1.1" xmlns="http://www.w3.org/2000/svg" p-id="2261"
  width="200" height="200">
  <path
    d="M326.4 256l236.8 236.8c12.8 12.8 28.8 19.2 44.8 19.2h256v256c0 35.2-28.8 64-64 64H192c-35.2 0-64-28.8-64-64V320c0-35.2 28.8-64 64-64h134.4m25.6-64H192c-70.4 0-128 57.6-128 128v448c0 70.4 57.6 128 128 128h608c70.4 0 128-57.6 128-128V448H608l-256-256z"
    p-id="2262"></path>
  <path
    d="M729.6 182.4l12.8 32c12.8 32 41.6 54.4 76.8 60.8l51.2 9.6-38.4 48h-185.6l-51.2-54.4 44.8-6.4c32-6.4 60.8-28.8 76.8-60.8l12.8-28.8m0-118.4c-12.8 0-25.6 6.4-32 19.2l-44.8 102.4c-3.2 9.6-12.8 19.2-25.6 19.2l-102.4 19.2c-25.6 3.2-38.4 38.4-19.2 60.8l102.4 105.6c6.4 6.4 16 9.6 22.4 9.6h217.6c9.6 0 19.2-3.2 25.6-12.8l76.8-102.4c19.2-22.4 9.6-57.6-19.2-60.8l-102.4-16c-9.6-3.2-19.2-9.6-25.6-19.2l-44.8-102.4c-6.4-16-19.2-22.4-28.8-22.4z"
    p-id="2263"></path>
</svg>