<svg t="1687938411193" class="icon" viewBox="0 0 1024 1024" version="1.1" xmlns="http://www.w3.org/2000/svg" p-id="2178"
  width="200" height="200">
  <path
    d="M512 960c-57.6 0-112-54.4-112-112V508.8v-3.2L115.2 172.8c-16-19.2-22.4-41.6-16-64C108.8 80 131.2 64 160 64h697.6c22.4 0 48 9.6 60.8 32 16 25.6 12.8 54.4-6.4 73.6l-288 339.2v342.4c0 54.4-54.4 108.8-112 108.8z m316.8-832H195.2c-12.8 0-22.4 16-12.8 25.6l272 320c6.4 6.4 9.6 16 9.6 22.4v352c0 22.4 25.6 48 48 48s48-25.6 48-48v-352c0-9.6 3.2-16 9.6-22.4l272-320c9.6-9.6 0-25.6-12.8-25.6z"
    p-id="2179"></path>
</svg>