<svg t="1697625539244" class="icon" viewBox="0 0 1024 1024" version="1.1" xmlns="http://www.w3.org/2000/svg" p-id="4571"
  width="200" height="200">
  <path
    d="M232.727273 977.454545H162.676364A115.944727 115.944727 0 0 1 46.545455 861.696v-370.036364a115.944727 115.944727 0 0 1 116.130909-115.805091H232.727273V977.454545zM302.545455 374.551273c94.440727-33.931636 148.107636-120.226909 161.047272-263.447273 5.073455-56.087273 58.507636-79.406545 109.381818-54.830545 50.501818 24.389818 83.828364 85.969455 83.828364 168.261818a654.429091 654.429091 0 0 1-18.385454 151.319272H861.090909a116.363636 116.363636 0 0 1 112.965818 144.197819l-73.448727 298.077091A209.454545 209.454545 0 0 1 697.250909 977.454545H302.545455V374.551273z"
    p-id="4572"></path>
</svg>