<svg t="1686629038290" class="icon" viewBox="0 0 1024 1024" version="1.1" xmlns="http://www.w3.org/2000/svg" p-id="2366"
  width="200" height="200">
  <path
    d="M656 291.2H169.6l137.6-134.4c12.8-12.8 12.8-32 0-44.8-12.8-12.8-32-12.8-44.8 0L89.6 281.6c-25.6 25.6-25.6 73.6 0 99.2l169.6 169.6c6.4 6.4 16 9.6 22.4 9.6s16-3.2 22.4-9.6c12.8-12.8 12.8-32 0-44.8l-134.4-134.4H640c131.2 0 236.8 41.6 236.8 220.8s-105.6 220.8-236.8 220.8H288c-16 0-32 19.2-32 41.6S268.8 896 288 896h368c169.6 0 304-76.8 304-304 0-224-137.6-300.8-304-300.8z"
    p-id="2367"></path>
</svg>