<svg t="1684594287866" class="icon" viewBox="0 0 1024 1024" version="1.1" xmlns="http://www.w3.org/2000/svg" p-id="1544"
  width="200" height="200">
  <path
    d="M288 656c-19.2 0-32 12.8-32 32V800c-83.2-70.4-131.2-176-131.2-288C124.8 297.6 297.6 124.8 512 124.8c38.4 0 76.8 6.4 115.2 19.2 16 6.4 32-3.2 38.4-19.2 6.4-16-3.2-32-19.2-38.4-44.8-12.8-89.6-19.2-134.4-19.2C265.6 67.2 67.2 265.6 67.2 512c0 121.6 51.2 236.8 137.6 320H112c-19.2 0-32 12.8-32 32s12.8 32 32 32h163.2c9.6 0 22.4 0 32-12.8 12.8-12.8 12.8-25.6 12.8-35.2v-160c0-19.2-12.8-32-32-32zM822.4 192h89.6c19.2 0 32-12.8 32-32s-12.8-32-32-32h-160c-12.8 0-25.6 0-38.4 12.8-9.6 9.6-9.6 22.4-9.6 35.2v160c0 19.2 12.8 32 32 32s32-12.8 32-32V224c83.2 73.6 131.2 176 131.2 288 0 214.4-172.8 387.2-387.2 387.2-41.6 0-80-6.4-118.4-19.2-16-3.2-32 3.2-38.4 19.2-6.4 16 3.2 32 19.2 38.4 44.8 12.8 89.6 19.2 137.6 19.2 246.4 0 444.8-198.4 444.8-444.8 0-121.6-48-236.8-134.4-320z"
    p-id="1545"></path>
</svg>