<svg class="icon" width="200px" height="200.00px" viewBox="0 0 1024 1024" version="1.1" xmlns="http://www.w3.org/2000/svg">
  <path fill="current-color" d="M991.418182 940.218182l-228.072727-228.072727C823.854545 640 861.090909 544.581818 861.090909 442.181818c0-230.4-188.509091-418.909091-418.909091-418.909091S23.272727 211.781818 23.272727 442.181818s188.509091 418.909091 418.909091 418.909091c102.4 0 197.818182-37.236364 269.963637-100.072727l228.072727 228.072727c13.963636 13.963636 34.909091 13.963636 48.872727 0 13.963636-11.636364 13.963636-34.909091 2.327273-48.872727zM442.181818 802.909091c-200.145455 0-360.727273-160.581818-360.727273-360.727273S242.036364 81.454545 442.181818 81.454545 802.909091 242.036364 802.909091 442.181818 642.327273 802.909091 442.181818 802.909091z" />
</svg>