<svg t="1683186947494" class="icon" viewBox="0 0 1024 1024" version="1.1" xmlns="http://www.w3.org/2000/svg" p-id="1876"
  width="200" height="200">
  <path
    d="M556.8 512l316.8-316.8c12.8-12.8 12.8-32 0-44.8-12.8-12.8-32-12.8-44.8 0L512 467.2 195.2 150.4c-12.8-12.8-32-12.8-44.8 0-12.8 12.8-12.8 32 0 44.8l316.8 316.8-316.8 316.8c-12.8 12.8-12.8 32 0 44.8 12.8 12.8 32 12.8 44.8 0l316.8-316.8 316.8 316.8c12.8 12.8 32 12.8 44.8 0 12.8-12.8 12.8-32 0-44.8L556.8 512z"
    p-id="1877"></path>
</svg>