<svg class="icon"
  width="200px" height="200.00px" viewBox="0 0 1024 1024" version="1.1" xmlns="http://www.w3.org/2000/svg">
  <path fill="current-color"
    d="M512 93.090909c102.4 0 186.181818 83.781818 186.181818 186.181818s-83.781818 186.181818-186.181818 186.181818-186.181818-83.781818-186.181818-186.181818 83.781818-186.181818 186.181818-186.181818m0-58.181818c-134.981818 0-244.363636 109.381818-244.363636 244.363636S377.018182 523.636364 512 523.636364 756.363636 414.254545 756.363636 279.272727 646.981818 34.909091 512 34.909091zM244.363636 558.545455c102.4 0 186.181818 83.781818 186.181819 186.181818s-83.781818 186.181818-186.181819 186.181818-186.181818-83.781818-186.181818-186.181818 83.781818-186.181818 186.181818-186.181818m0-58.181819C109.381818 500.363636 0 609.745455 0 744.727273s109.381818 244.363636 244.363636 244.363636S488.727273 879.709091 488.727273 744.727273s-109.381818-244.363636-244.363637-244.363637zM779.636364 558.545455c102.4 0 186.181818 83.781818 186.181818 186.181818s-83.781818 186.181818-186.181818 186.181818-186.181818-83.781818-186.181819-186.181818 83.781818-186.181818 186.181819-186.181818m0-58.181819C644.654545 500.363636 535.272727 609.745455 535.272727 744.727273s109.381818 244.363636 244.363637 244.363636S1024 879.709091 1024 744.727273s-109.381818-244.363636-244.363636-244.363637z" />
</svg>